<?xml version="1.0" encoding="utf-8"?>
<!-- Generator: Adobe Illustrator 16.0.3, SVG Export Plug-In . SVG Version: 6.00 Build 0)  -->
<!DOCTYPE svg PUBLIC "-//W3C//DTD SVG 1.1//EN" "http://www.w3.org/Graphics/SVG/1.1/DTD/svg11.dtd">
<svg version="1.1" id="Layer_1" xmlns="http://www.w3.org/2000/svg" xmlns:xlink="http://www.w3.org/1999/xlink" x="0px" y="0px"
	 width="202.932px" height="197.921px" viewBox="0 0 202.932 197.921" enable-background="new 0 0 202.932 197.921"
	 xml:space="preserve">
<g>
	<path fill-rule="evenodd" clip-rule="evenodd" fill="#191717" d="M101.466,0C45.436,0,0,45.426,0,101.466
		c0,44.83,29.073,82.864,69.389,96.281c5.07,0.938,6.933-2.202,6.933-4.882c0-2.418-0.093-10.413-0.138-18.892
		C47.956,180.112,42,162.002,42,162.002c-4.616-11.727-11.266-14.847-11.266-14.847c-9.207-6.297,0.694-6.167,0.694-6.167
		c10.188,0.715,15.554,10.457,15.554,10.457c9.05,15.511,23.737,11.026,29.528,8.434c0.91-6.557,3.539-11.035,6.442-13.568
		c-22.538-2.564-46.23-11.266-46.23-50.145c0-11.077,3.964-20.13,10.456-27.235c-1.053-2.556-4.527-12.875,0.983-26.853
		c0,0,8.521-2.725,27.91,10.402c8.094-2.249,16.774-3.376,25.397-3.416c8.623,0.04,17.31,1.167,25.419,3.416
		c19.367-13.127,27.875-10.402,27.875-10.402c5.523,13.977,2.049,24.297,0.996,26.853c6.506,7.105,10.443,16.158,10.443,27.235
		c0,38.972-23.737,47.552-46.332,50.064c3.64,3.148,6.882,9.323,6.882,18.789c0,13.577-0.117,24.504-0.117,27.846
		c0,2.701,1.826,5.864,6.969,4.868c40.294-13.432,69.332-51.452,69.332-96.268C202.932,45.426,157.503,0,101.466,0z"/>
	<path fill="#191717" d="M38.431,145.682c-0.223,0.506-1.018,0.657-1.739,0.311c-0.737-0.331-1.149-1.019-0.911-1.524
		c0.218-0.519,1.012-0.663,1.748-0.316C38.265,144.482,38.685,145.177,38.431,145.682L38.431,145.682z M37.182,144.757"/>
	<path fill="#191717" d="M42.541,150.267c-0.484,0.448-1.431,0.24-2.072-0.469c-0.665-0.708-0.788-1.654-0.297-2.109
		c0.499-0.447,1.417-0.237,2.081,0.47C42.917,148.874,43.046,149.813,42.541,150.267L42.541,150.267z M41.573,149.229"/>
	<path fill="#191717" d="M46.542,156.109c-0.622,0.434-1.639,0.028-2.268-0.874c-0.622-0.902-0.622-1.985,0.015-2.418
		c0.628-0.434,1.631-0.043,2.268,0.851C47.176,154.586,47.176,155.669,46.542,156.109L46.542,156.109z M46.542,156.109"/>
	<path fill="#191717" d="M52.022,161.756c-0.556,0.614-1.741,0.448-2.607-0.389c-0.888-0.817-1.134-1.979-0.578-2.593
		c0.564-0.613,1.756-0.441,2.629,0.39C52.347,159.98,52.614,161.149,52.022,161.756L52.022,161.756z M52.022,161.756"/>
	<path fill="#191717" d="M59.583,165.035c-0.246,0.794-1.386,1.154-2.535,0.816c-1.149-0.348-1.898-1.278-1.667-2.081
		c0.238-0.8,1.385-1.176,2.542-0.815C59.069,163.302,59.821,164.226,59.583,165.035L59.583,165.035z M59.583,165.035"/>
	<path fill="#191717" d="M67.887,165.642c0.028,0.837-0.947,1.531-2.153,1.546c-1.212,0.028-2.195-0.65-2.208-1.474
		c0-0.845,0.953-1.531,2.166-1.553C66.898,164.139,67.887,164.812,67.887,165.642L67.887,165.642z M67.887,165.642"/>
	<path fill="#191717" d="M75.614,164.327c0.145,0.815-0.694,1.654-1.892,1.877c-1.178,0.217-2.268-0.288-2.418-1.098
		c-0.146-0.837,0.707-1.675,1.884-1.892C74.387,163.007,75.461,163.497,75.614,164.327L75.614,164.327z M75.614,164.327"/>
</g>
</svg>
