<?xml version="1.0" encoding="UTF-8" standalone="no"?>
<svg width="16mm" height="16mm" viewBox="0 0 16 16" version="1.1" xmlns="http://www.w3.org/2000/svg">
    <svg height="16" viewBox="0 0 16 16" version="1.1" width="16">
        <path d="M 1.75,0 A 1.75,1.75 0 0 0 0,1.75 v 12.5 C 0,15.216 0.784,16 1.75,16 h 12.5 A 1.75,1.75 0 0 0 16,14.25 V 1.75 A 1.75,1.75 0 0 0 14.25,0 Z M 1.5,1.75 A 0.25,0.25 0 0 1 1.75,1.5 h 12.5 a 0.25,0.25 0 0 1 0.25,0.25 v 12.5 A 0.25,0.25 0 0 1 14.25,14.5 H 1.75 A 0.25,0.25 0 0 1 1.5,14.25 Z M 11.75,3 A 0.75,0.75 0 0 0 11,3.75 v 7.5 a 0.75,0.75 0 0 0 1.5,0 V 3.75 A 0.75,0.75 0 0 0 11.75,3 Z M 3.5,3.75 a 0.75,0.75 0 0 1 1.5,0 v 5.5 a 0.75,0.75 0 0 1 -1.5,0 z M 8,3 A 0.75,0.75 0 0 0 7.25,3.75 v 3.5 a 0.75,0.75 0 0 0 1.5,0 V 3.75 A 0.75,0.75 0 0 0 8,3 Z" />
    </svg>
</svg>
