<?xml version="1.0" encoding="utf-8"?>
<!-- Generator: Adobe Illustrator 16.0.3, SVG Export Plug-In . SVG Version: 6.00 Build 0)  -->
<!DOCTYPE svg PUBLIC "-//W3C//DTD SVG 1.1//EN" "http://www.w3.org/Graphics/SVG/1.1/DTD/svg11.dtd">
<svg version="1.1"
	 id="svg2" xmlns:dc="http://purl.org/dc/elements/1.1/" xmlns:cc="http://creativecommons.org/ns#" xmlns:rdf="http://www.w3.org/1999/02/22-rdf-syntax-ns#" xmlns:svg="http://www.w3.org/2000/svg" xmlns:sodipodi="http://sodipodi.sourceforge.net/DTD/sodipodi-0.dtd" xmlns:inkscape="http://www.inkscape.org/namespaces/inkscape" inkscape:version="0.48.0 r9654" sodipodi:docname="2_of_spades.svg" inkscape:export-filename="/home/byron/art/cards/final/PNGs/2_of_spades.png" inkscape:export-xdpi="215.44792" inkscape:export-ydpi="215.44792"
	 xmlns="http://www.w3.org/2000/svg" xmlns:xlink="http://www.w3.org/1999/xlink" x="0px" y="0px" width="167.086px"
	 height="242.667px" viewBox="0 0 167.086 242.667" enable-background="new 0 0 167.086 242.667" xml:space="preserve">
<g>
	
		<sodipodi:namedview  id="namedview39" bordercolor="#666666" pagecolor="#ffffff" borderopacity="1" objecttolerance="10" gridtolerance="10" guidetolerance="10" showgrid="false" inkscape:zoom="2.4336873" inkscape:cx="106.02254" inkscape:cy="157.08206" inkscape:pageopacity="0" inkscape:pageshadow="2" inkscape:window-width="1680" inkscape:window-height="977" inkscape:window-x="0" inkscape:window-y="25" inkscape:window-maximized="1" inkscape:current-layer="svg2">
		</sodipodi:namedview>
	<g id="Layer_x0020_1">
		<path id="path5" fill="#FFFFFF" stroke="#000000" stroke-width="0.5" d="M166.836,235.548c0,3.777-3.086,6.869-6.871,6.869H7.111
			c-3.775,0-6.861-3.092-6.861-6.869V7.12c0-3.777,3.086-6.87,6.861-6.87h152.854c3.785,0,6.871,3.093,6.871,6.87V235.548z"/>
		<g id="g7">
			<g id="g9">
			</g>
		</g>
		<g id="g15">
		</g>
		<g id="g19">
		</g>
		<g id="g23">
			<g id="g25">
			</g>
		</g>
		<g id="g31">
			<g id="g33">
			</g>
		</g>
	</g>
	<g>
		<path id="rect6355-6-85-62-9-7_5_" stroke="#000000" stroke-width="0.5" d="M13.445,6.879h139.708c4.077,0,7.387,3.51,7.387,7.823
			v212.88c0,4.314-3.31,7.832-7.387,7.832H13.445c-4.085,0-7.387-3.518-7.387-7.832V14.703C6.058,10.389,9.36,6.879,13.445,6.879z"
			/>
		<g>
			<g>
				<path fill="#FFFFFF" stroke="#000000" stroke-width="0.25" d="M114.323,103.586c-1.411-3.913-2.475-7.887-1.411-12.429
					l2.831,1.461c-2.12-3.519-3.186-8.168-2.12-12.318c1.055,0.53,2.819,2.275,4.593,3.227c-2.127-4.754-1.063-9.542-1.063-14.302
					l-0.71-3.126l2.476-0.063c-3.885-4.553-3.175-11.698-7.415-15.025l2.12-3.035c0.7-0.958,0-1.909-0.354-2.859
					c-1.065-2.76-3.539-3.39-5.304-4.469l-2.821,1.115l-3.186,3.107c-5.303-1.298-7.769-1.207-10.242-1.188l-3.186,1.672
					l-1.765,2.147l-0.354,2.138l-7.424,3.583c-0.354,0.758-0.701,1.59,0.354,1.919c0.711,0.365,1.419,0.777,1.766,1.783
					c-0.347,0.996-0.701,1.991-0.347,2.988c0,1.078,0.347,2.146,1.057,3.07c8.133-2.129,5.65-3.025,8.833-3.134
					c1.765,0.073,2.475,0.238,3.184,1.178l0.355,1.919c-1.064-0.219-2.474-0.072-3.894-0.886c-2.475-0.21-4.595,0.951-6.358,2.158
					c-8.125,5.044-24.739-0.137-9.891-7.32c-10.244-0.705-16.259,13.425-3.184,14.851c6.004,0.419,7.07-1.49,12.018-3.263
					c1.411,0.384,1.057,2.878,1.765,2.979c0.354,0.924,1.411,1.381,2.12,1.847c2.83-0.109,4.95,0.147,5.296,1.169
					c0.354,0.75,0.354,1.097-0.346,1.416c-0.712,1.39-1.766,2.378-3.186,3.09c-1.765,0.283-3.53,0.073-5.305-0.074
					c-3.174-1.809-4.593-3.583-5.649-5.392c-0.355,2.093-0.355,4.652,0.709,5.858c-2.83-0.037-5.304,0.639-7.778,2.165
					c-4.239,2.734-8.835,6.992-12.72,10.749c-2.83,1.425-5.648,3.234-9.188,2.706c-6.004-3.054-2.821-6.315-1.766-8.345
					c-2.474,0.11-3.175,2.093-4.238,4.689c0,2.166,0,4.047,1.063,5.995c2.467,2.239,4.24,2.129,6.005,2.413
					c3.53-0.173,7.069-0.813,10.6-1.663c-2.476,1.416-3.185,2.156-3.53,3.079c8.834,1.353,12.008-1.735,18.013-2.623
					c-1.411,1.818-3.175,3.692-3.175,5.292c10.245,0.53,17.668-4.121,20.843-4.935c-1.054,1.416-2.465,2.805-1.054,3.583
					c4.238,0.074,9.888-3.757,10.953-4.862C105.845,99.327,109.729,102.023,114.323,103.586z"/>
				<path fill="#FFFFFF" stroke="#000000" stroke-width="0.25" d="M81.962,140.216c0.063,4.716,6.041,3.472,10.698,2.439
					c-0.346,2.424,0.893,3.053,4.458,1.673l4.032-7.557c-2.721,0.711-5.196,0.711-9.089,2.914
					C88.704,140.07,85.492,139.851,81.962,140.216L81.962,140.216z"/>
				<path fill="#FFFFFF" stroke="#000000" stroke-width="0.25" d="M93.016,65.175c-2.083-0.063-4.312-0.101-7.314,1.526
					c0.537,0.504,1.102,1.281,1.766,1.215h1.982C91.678,67.278,92.697,66.318,93.016,65.175L93.016,65.175z"/>
				<path fill="#FFFFFF" stroke="#000000" stroke-width="0.25" d="M69.135,80.163c-7.351-5.292-12.401-11.642-14.385-19.457
					c0.392-1.214,1.201-2.157,2.366-2.878l0.146-1.671c-0.992-0.612-1.8-1.381-2.157-2.614c-0.391-1.92-1.591-3.409-2.611-5.018
					c-1.31-1.234-2.547-1.179-3.574-1.316c0.317,1.957,0,3.893-0.356,5.849c-0.345,1.626-0.91,2.943-1.764,3.938l2.011,2.87
					l0.326,1.308l-2.993-0.11c-0.619-0.42-0.51-1.005-0.527-1.563l0.591-2.266c0-0.979-0.691-1.6-1.309-2.276l-1.902-0.11
					c-1.865-2.796-4.822-2.12-7.597-2.029c-0.227,0.412-0.619,0.659-0.246,1.673l2.62,2.622l0.118,4.059
					c0.82,0.777,1.803,1.416,3.567,1.416c1.075,1.956,0.446,2.413-0.837,2.267c-1.21-0.211-1.282-1.344-1.782-2.129
					c-1.267-0.494-1.893-0.494-2.375-0.348l-1.902,2.13c-1.655,0.209-2.766,0.565-3.803,1.553c0.191,1.215,1.192,1.425,1.966,1.919
					c0.873-0.027,1.601,0.356,2.31,0.813c0.3,0.713,0.828,1.316,1.428,1.854c1.402-0.429,2.721-0.712,3.803-0.539
					c1.019,0.32,1.155,0.777,0.118,1.453c-2.138-0.101-2.738,0.604-3.33,1.316c0.328,1.242,0.328,2.312,0,3.089
					c-1.101,2.167-2.211,3.162-3.321,4.404c1.729,0.101,3.421,0.101,4.996-0.11c0.79-0.393,1.609-0.748,2.247-1.425
					c1.01,0,1.675,0,2.383,0c0.51-0.703,1.019-1.553,1.539-2.759c0.945-0.11,1.801-0.539,3.321,1.306
					c-0.073,1.956-0.501,3.838-1.065,5.611c1.482,0.457,2.647-0.457,3.812-1.416c0.464,2.165,0.109,3.582-0.136,5.501
					c1.765-1.097,2.929-1.463,3.567-1.097l1.31,5.603C60.408,88.891,64.43,83.179,69.135,80.163L69.135,80.163z"/>
				<path fill="#FFFFFF" stroke="#000000" stroke-width="0.25" d="M108.81,103.934c-1.692-2.057-3.884-3.473-6.213-4.717
					c-4.805,3.903-10.499,5.922-16.259,6.216c0.782-0.998,2.119-1.92,2.302-3.519c-5.759,2.422-12.264,3.938-19.578,3.83
					c0.209-1.591,1.028-3.153,1.838-4.753c-4.095,1.143-8.344,2.202-16.005,1.746c-3.712,2.906-7.423,5.812-15.457,6.104
					c-0.709-0.182-0.373-0.895-0.172-1.526c1.018-0.539,1.682-1.781,2.392-2.915c-0.691-0.959-1.419-1.883-2.739-2.194
					c-0.5-1.599-1.491-3.235-2.784-4.833c-0.864-0.531-1.483-0.284-2.337-0.174c-0.055,1.838-0.155,3.692,0.263,5.539
					c-1.127,0.557-2.056,0.951-2.402,2.129c0.792,1.133,1.61,2.231,3.021,2.869c0.164,0.778,0.473,1.636-0.119,2.094
					c-1.292,0.675-2.574,0.776-3.866,0.183c-0.082-1.819,1.191-4.121-1.337-5.082c-3.094-0.42-5.959-0.183-8.744,0.357
					c-0.61,0-1.037,0.356-1.493,0.675c-0.391,0.458-0.446,0.888-0.355,1.353c1.42,0.283,2.82,0.604,3.768,1.836
					c0.518,1.317,0.126,1.993,0,3.126l1.446,0.676l2.001-0.072c1.818,0.996,0.955,2.027,0.164,3.015
					c-1.684-0.383-2.811-0.776-3.867-1.169c0.237,1.562-0.118,2.421-0.673,3.052c-1.901,0.64-3.803,0.777-5.705,0.677
					c0.382,2.02,2.62,3.261,4.868,4.543c1.419,0.53,2.412,0.43,3.193,0c1.864-0.1,3.275,0.137,4.03,0.851
					c0.155-1.061,0.092-2.133,0.836-3.229c0.919-0.502,1.584-0.247,2.184,0.173c0.101,1.776-1.247,2.708-2.184,3.905
					c0.055,1.279,0.219,2.485,1.52,2.842c-0.537,2.029-0.755,3.901-0.336,5.575c3.166-0.53,5.477-2.303,7.223-4.898
					c1.301-0.959,2.757-1.811,2.684-3.519c-1.255-0.594-2.61-1.17-2.182-2.057c2.064-2.167,4.275-2.835,6.658-2.305
					c0.583,2.131-0.991,2.763-1.673,4.041c1.184-0.137,2.184-0.42,2.747-1.059c1.813-2.133,3.749-4.052,6.051-5.405
					c0.674,0.22,0.956,0.678,0.674,1.536l-3.258,3.092c1.983,0.593,3.43-0.642,5.094-1.576c2.22-3.581,4.131-5.71,5.441-5.281
					c1.056,2.267,3.775,3.692,6.886,4.862l-1.909-4.122c1.519-3.335,6.468-3.756,9.752-5.574c1.448,3.271,4.349,5.94,7.561,8.417
					c5.731,3.163,15.447,6.746,16.121,9.306c-9.442,0.174-18.022-3.591-27.039-5.401c-7.342-0.853-9.789,1.526-11.59,2.879
					c-3.248,4.368-3.065,8.198-4.558,12.318c-1.375,0.851-2.793,0.74-4.204,0.493c-3.528-2.129-3.393-4.751-3.037-7.52
					c-2.347,0.74-3.84,3.618-3.703,7.594c0.21,2.66,1.801,4.259,4.057,5.318c3.285,1.49,6.433,1.956,9.081-0.85
					c2.01,1.6,3.465,3.545,4.384,5.923c-0.564,6.999-8.379,10.443-10.426,11.285c-0.709-1.17-0.182-2.339,0-3.545
					c-0.037-1.39-0.492-2.596-1.165-3.692l-3.221-0.174c-1.564-2.806-4.239-1.453-6.542-1.526c0.801,1.097,1.993,1.883,2.239,3.546
					c-0.291,1.664-1.31,2.103-2.021,3.053c2.329,2.274,3.529,3.518,4.276,4.368c0.4,1.499-0.4,1.315-0.919,1.443
					c-1.028,0.786-2.684-1.553-4.031-2.33c-1.128-0.11-2.255,0.384-3.375,1.271c-4.157,0.247-4.976,2.951-6.413,5.182
					c1.946,0.073,3.92-0.283,5.421,0.401c1.429,1.271,2.813,2.588,2.684,3.428c1.438,0.146,2.521-0.53,3.312-1.801
					c1.802-0.183,2.293,0.247,2.357,0.851c-2.239,1.143-3.967,2.275-3.694,3.546l1.509,2.202c-0.581,1.637-0.545,3.262-0.336,4.897
					c0.555,1.499,0.938,1.38,1.347,1.499c1.81-2.677,2.428-3.17,3.356-4.194c3.131-0.785,3.658-3.08,2.703-6.241
					c0.818-1.818,2.264-1.563,3.674-1.345c0.146,1.738-0.109,3.465-0.745,5.21c0.782,1.032,1.21,1.061,2.302,1.307
					c-0.283,1.983-0.564,3.765,0.245,5.611c3.467-0.493,3.358-3.335,4.705-5.254c1.019-1.088,1.127-2.87,1.055-4.113l-2.193-3.444
					c1.274-2.706,3.931-3.19,7.242-2.733c-0.81,1.416-0.245,2.842-0.171,4.222c1.8,1.636,3.538,3.701,5.195,6.114
					c0.391-1.18,1.063-2.138,0.845-3.737c-1.482-1.801-2.893-3.546-2.502-4.726c0.101-2.688,1.52-2.759,2.502-3.72
					c-0.454,1.737-0.282,3.482,0,5.264c0.073,1.381,0.856,2.404,2.375,3.008c3.101-0.85,4.766,0.174,6.706,0.85
					c-0.175-1.417-1.275-2.621-2.858-3.728c-2.656-0.925-2.055-2.487-2.33-3.867c-0.217-1.945,0.275-2.239,0.492-3.197
					c1.237,1.205,1.311,3.408,1.837,5.218c3.212,1.772,4.876,1.956,6.715,2.376c0.565-0.457,0.565-1.087,0.173-1.874
					c-1.274-0.923-2.719-1.526-3.712-3.188c-1.238-1.883-0.564-2.742-0.136-3.738c2.683-0.95,5.513-1.728,5.759-3.482
					c1.656-2.074,2.292-4.668,2.502-7.402c-0.909-2.879-2.257-4.906-4.904-4.439c0.491,1.772,1.374,3.58,0.992,5.391
					c0.49,2.596-0.992,3.089-2.021,4.039c0.146-1.06,0.182-2.13-0.318-3.044c-2.401-3.691-5.223-7.311-4.876-11.643
					c0.955-2.339,2.829-2.477,4.703-2.695l10.564-0.284c3.319-1.992,6.222-2.267,9.262-3.051
					c-3.321,6.067-7.462,11.988-8.407,18.351c0.21,3.508,0.701,6.597,1.692,9.119c1.766,2.98,0.99,4.259,0.99,6.068
					c-1.555,0.741-4.066-0.219-6.368-0.822c-0.563,2.304,1.811,3.445,3.858,4.717c3.394-0.056,4.275-0.669,5.369-1.207
					c2.081-1.81,2.509-4.461,2.683-7.229c5.232,0.75,10.181,0.466,15.401,0.102c-0.209,5.008-4.656,10.015-7.55,15.022
					c-1.028,0.248-1.874,0.202-1.947-0.784l0.491-1.18c0.219-0.923-0.1-1.59-0.674-2.193c-3.456-0.283-6.813-0.749-10.562,0.037
					c-0.737,0.712-1.41,1.416-1.338,2.092c2.083,1.024,3.53,2.057,4.658,3.09c0.245,0.949,0.5,1.872,1.027,2.375l3.531,0.493
					c0.392,0.961,0.572,1.929,0.318,2.879c-1.482,0-2.819-0.538-4.204-1.022c-0.773,0.94-1.836,1.811-0.673,3.043
					c-1.547,1.059-2.011,1.992-2.329,2.878c-0.464,2.103-0.318,3.793,0,5.394c0.146,1.169,0.92,1.451,1.655,1.709
					c1.92-2.204,3.576-4.086,3.895-3.912c1.311-1.49,2.156-0.997,3.176-1.17c0.535-1.672,0.599-4.039,1.837-4.543
					c0.673,0.074,1.446-0.1,1.347,1.49c-1.347,1.144-1.519,2.268-2.02,3.373c1.838,1.452,3.146,2.805,3.539,4.075
					c2.329,1.636,4.376,2.495,6.214,2.704c-0.527-2.101-0.701-4.048-1.656-6.241c1.301-0.748,1.019-1.672,1.165-2.558
					c-0.245-0.786-0.527-1.591-1.838-2.705c-0.773,0.255-0.847-0.667-1.028-1.481c1.628-1.206,2.512-0.539,3.357,0.138
					c0.464,0.795,0.537,1.426,0.5,2.029c-0.537,0.813-0.219,1.589,0.174,2.375c1.164,0.21,2.474-0.045,3.221,1.517
					c-0.354,2.239-0.109,3.702,1.164,3.885c1.056-0.54,1.765-1.563,2.192-3.062c0.7-2.843,0.882-5.895,0.673-9.084
					c-0.991-0.923-2.093-1.71-3.712-1.353c-0.819-0.96-0.391-1.727,1.02-2.377c2.192-0.393,3.038-1.516,4.176-2.522
					c1.092,0.888,2.611,4.086,3.666,3.51c2.021,0.118,2.438,1.884,2.866,2.021l-0.146-4.004c-1.973-1.488-3.53-3.226-3.001-6.424
					l3.675,3.875c2.547,0.219,2.584,2.167,3.221,3.72c1.128-0.42,1.62-1.664,2.011-3.043c-1.874-2.596-3.64-5.183-4.384-8.087
					c-0.638-2.68,0.709-2.414,1.345-3.2c0.456,3.145,1.802,5.318,3.849,6.563c2.302,0.675,4.421,0.922,6.077,0
					c2.621-2.696,5.059-5.503,5.196-9.625c-3.922,2.743-8.479,9.726-10.745,1.709c-0.346-2.129,0.254-3.946,0.991-5.757
					c0.219-2.558-0.1-5.208-0.673-7.904c1.492,0,2.693,0.887,3.856,1.837c0.528,1.207,0.848,2.668,1.237,4.021
					c0.603-1.809,1.275-3.591,0.812-5.857c-1.874-3.766-4.695-5.611-8.899-4.761c-5.413,1.205-9.789,3.152-15.229,4.724
					c-2.585-1.818-1.911-5.218-0.747-8.91c5.26-0.529,8.652-3.052,11.235-6.424c1.166-3.793,1.593-7.914,2.122-12.629
					c-1.238-4.234-2.049-8.457-4.806-12.678c-2.618-5.713-2.337-9.295-2.011-12.85c1.939-8.197,5.823-14.019,9.927-19.557
					c1.592-3.474,3.247-6.845,2.855-12.172c-2.082-4.615-7.131-11.917-4.976-12.985c0.383-1.893,1.628-1.262,2.794-1.171
					c2.182,0.036,3.394,1.644,4.866,2.87c0.327-1.929-1.765-4.515-3.283-7.184c-1.229-1.836-3.11-2.705-5.479-2.942
					c-3.603,0.622-4.302,3.455-5.513,5.903c-1.729-1.033-3.775-1.562-6.567-1.015c-1.484-0.073-2.33-1.581-3.357-2.695
					c-0.1,2.559,0.354,5.018,1.164,7.421c0.428,1.626,0.882,3.207,2.684,4.057l2.019,0.686c-0.709,1.233-2.229,1.946-1.664,4.039
					c1.31,1.773,2.34,3.62,2.513,5.749c-0.11,1.736-0.775,2.915-1.521,4.048c1.692,0.037,3.32,0.037,4.386-0.676
					c1.3-0.529,1.801-1.736,2.364-2.878c-0.172-2.769-0.745-5.529,0-8.271c1.482-0.311,2.294,0.393,2.82,1.536
					c2.402,4.824,1.139,7.95,1.029,11.642c-3.04,7.521-7.488,15.043-11.272,22.601c-1.057,3.197-0.282,6.076,0.536,8.946
					c2.931,5.647,3.565,9.933,4.339,14.338c1.594,4.125,0.465,8.026,0.356,12.001c0,1.418-0.601,2.378-1.693,3.017
					c-1.383,1.069-3.002,1.772-4.876,2.203c-0.318-2.094-0.318-4.159-2.156-6.251c-5.478-6.845-12.719-13.839-11.765-20.263
					c-0.035-3.051-0.536-6.315,0.319-9.093H108.81z"/>
			</g>
			<g>
				<path fill="#FFFFFF" stroke="#000000" stroke-width="0.25" d="M90.868,63.613l-3.575-0.239
					c-3.466,1.837-6.823,3.62-10.917,3.939c-6.47,0.283-13.538-3.765-5.832-9.239c-11.089,4.341-6.996,13.781,4.767,12.392
					C82.917,67.278,85.701,65.889,90.868,63.613z"/>
				<path fill="#FFFFFF" stroke="#000000" stroke-width="0.25" d="M49.764,54.125c1.31-0.437,2.62-0.473,3.93-0.118v-1.133
					c-0.882-1.963-2.091-3.464-3.64-4.469C50.192,50.362,50.264,52.328,49.764,54.125z"/>
				<path fill="#FFFFFF" stroke="#000000" stroke-width="0.25" d="M41.394,55.206c-0.863,1.078-1.892,1.361-2.912,1.671
					c-0.409-1.144-1.155-2.111-2.192-2.925c0.9-0.209,1.81-0.374,3.03-0.118C40.075,54.081,40.93,54.054,41.394,55.206z"/>
				<path fill="#FFFFFF" stroke="#000000" stroke-width="0.25" d="M34.506,65.459c-0.374,0.639-0.536,1.206-0.118,1.671
					c-0.773,0.037-1.546,0.147-2.32-0.776C32.487,65.568,33.461,65.459,34.506,65.459z"/>
				<path fill="#FFFFFF" stroke="#000000" stroke-width="0.25" d="M38.127,76.435c0.619,0.703,1.402,1.308,2.493,1.664
					c-0.728,0.502-1.437,1.069-2.319,1.105c-0.692,0.238-1.511,0.027-2.365-0.329C37.073,78.272,37.609,77.348,38.127,76.435z"/>
				<path fill="#FFFFFF" stroke="#000000" stroke-width="0.25" d="M35.153,98.367c-0.409,1.133-0.374,2.304,0.337,3.437
					c0.955,0.503,1.6,0.036,2.346-0.074C37.282,100.424,36.599,99.217,35.153,98.367z"/>
				<path fill="#FFFFFF" stroke="#000000" stroke-width="0.25" d="M20.705,106.281c1.283-0.675,2.576-1.206,3.867-0.565
					c0.037,0.813,0,1.625-0.847,2.018C22.862,106.674,21.788,106.456,20.705,106.281z"/>
				<path fill="#FFFFFF" stroke="#000000" stroke-width="0.25" d="M18.521,119.268c1.175,1.07,2.439,1.957,4.277,1.883
					c0-0.713,0.081-1.417-1.002-2.129L18.521,119.268z"/>
				<path fill="#FFFFFF" stroke="#000000" stroke-width="0.25" d="M31.878,127.541c0.027,1.389-0.555,2.45-0.928,3.656
					c1.775-0.777,3.43-1.736,4.541-3.656C34.279,127.897,33.079,128.107,31.878,127.541z"/>
				<path fill="#FFFFFF" stroke="#000000" stroke-width="0.25" d="M42.203,152.096c-0.245,1.106,0.683,1.992,1.52,2.879l1.511-2.094
					C44.551,152.061,43.559,151.777,42.203,152.096z"/>
				<path fill="#FFFFFF" stroke="#000000" stroke-width="0.25" d="M35.991,164.352c-1.585,0.101-2.984,0.739-4.113,2.193
					c1.656-0.047,3.048,0.283,4.03,1.169C36.245,166.656,36.527,165.623,35.991,164.352z"/>
				<path fill="#FFFFFF" stroke="#000000" stroke-width="0.25" d="M42.122,177.164c-0.627,1.49-0.327,2.973-0.083,4.459
					c0.892-0.922,1.812-1.762,2.266-3.37C43.577,178.398,42.849,177.904,42.122,177.164z"/>
				<path fill="#FFFFFF" stroke="#000000" stroke-width="0.25" d="M54.895,177.767c0.457,0.283,1.238,0.247,2.612-0.356
					c-0.246,1.773-1.346,3.08-2.439,4.404C54.823,180.463,53.904,179.111,54.895,177.767z"/>
				<path fill="#FFFFFF" stroke="#000000" stroke-width="0.25" d="M101.923,177.091c-2.01-0.365-3.603,0.146-5.195,0.676
					c2.047,0.705,2.475,1.372,3.284,2.094C101.396,179.075,101.642,178.078,101.923,177.091z"/>
				<path fill="#FFFFFF" stroke="#000000" stroke-width="0.25" d="M99.411,191.43c-0.7,1.873-0.918,3.656-0.492,5.319
					c1.166-0.969,2.122-2.058,2.44-3.474C101.249,192.672,100.403,192.034,99.411,191.43z"/>
				<path fill="#FFFFFF" stroke="#000000" stroke-width="0.25" d="M111.503,197.005c0.736-1.033,1.692-1.435,2.856-1.106
					c0.601,1.416,1.092,2.843,1.028,4.048C113.795,199.518,112.631,198.311,111.503,197.005z"/>
				<path fill="#FFFFFF" stroke="#000000" stroke-width="0.25" d="M121.319,193.129l0.537-0.785c0.311,0,0.946-0.677,1.51-0.851
					c0.073,1.636-0.101,3.053-0.7,4.223C122.238,195.899,121.783,194.199,121.319,193.129z"/>
			</g>
			<path fill="#FFFFFF" stroke="#000000" stroke-width="0.25" d="M88.813,51.696c0.6-1.152,5.34-0.851,5.303-0.667
				c1.41,0.456,1.52,1.424,1.765,2.357l0.174,1.096l-0.601-0.676c-0.491,0.476-1.201,0.495-1.837,0.585l-0.737,0.091
				c-0.955-0.676-1.42-1.627-1.766-2.613C90.087,51.87,89.522,51.77,88.813,51.696z"/>
		</g>
	</g>
</g>
</svg>
