<?xml version="1.0" encoding="utf-8"?>
<!-- Generator: Adobe Illustrator 16.0.3, SVG Export Plug-In . SVG Version: 6.00 Build 0)  -->
<!DOCTYPE svg PUBLIC "-//W3C//DTD SVG 1.1//EN" "http://www.w3.org/Graphics/SVG/1.1/DTD/svg11.dtd">
<svg version="1.1"
	 id="svg2" xmlns:dc="http://purl.org/dc/elements/1.1/" xmlns:cc="http://creativecommons.org/ns#" xmlns:rdf="http://www.w3.org/1999/02/22-rdf-syntax-ns#" xmlns:svg="http://www.w3.org/2000/svg" xmlns:sodipodi="http://sodipodi.sourceforge.net/DTD/sodipodi-0.dtd" xmlns:inkscape="http://www.inkscape.org/namespaces/inkscape" inkscape:export-ydpi="215.44792" inkscape:export-xdpi="215.44792" inkscape:export-filename="/home/byron/art/cards/final/PNGs/2_of_clubs.png" sodipodi:docname="2_of_clubs.svg" inkscape:version="0.48.0 r9654"
	 xmlns="http://www.w3.org/2000/svg" xmlns:xlink="http://www.w3.org/1999/xlink" x="0px" y="0px" width="167.086px"
	 height="242.667px" viewBox="0 0 167.086 242.667" enable-background="new 0 0 167.086 242.667" xml:space="preserve">
<sodipodi:namedview  inkscape:cy="148.16686" inkscape:cx="117.62976" inkscape:zoom="2.4336873" showgrid="false" guidetolerance="10" gridtolerance="10" objecttolerance="10" borderopacity="1" bordercolor="#666666" pagecolor="#ffffff" id="namedview39" inkscape:window-x="0" inkscape:window-height="977" inkscape:window-width="1680" inkscape:pageshadow="2" inkscape:pageopacity="0" inkscape:current-layer="svg2" inkscape:window-maximized="1" inkscape:window-y="25">
	</sodipodi:namedview>
<g id="Layer_x0020_1">
	<path id="path5" fill="#FFFFFF" stroke="#000000" stroke-width="0.5" d="M166.836,235.548c0,3.777-3.086,6.869-6.871,6.869H7.111
		c-3.775,0-6.861-3.092-6.861-6.869V7.12c0-3.777,3.086-6.87,6.861-6.87h152.854c3.785,0,6.871,3.093,6.871,6.87V235.548z"/>
	<g id="g7">
		<g id="g9">
		</g>
	</g>
	<g id="g15">
	</g>
	<g id="g19">
	</g>
	<g id="g23">
		<g id="g25">
		</g>
	</g>
	<g id="g31">
		<g id="g33">
		</g>
	</g>
</g>
<g id="layer1-1-4-8" transform="matrix(2.5125778,0,0,2.5125778,-36.788386,-1.5311156)">
	<path id="cl-9-8" inkscape:connector-curvature="0" d="M54.302,39.703c0,0,7.05-5.641,7.05-13.462
		c0-4.579-4.064-12.179-13.461-12.179c-9.397,0-13.461,7.604-13.461,12.179c0,7.82,7.051,13.462,7.051,13.462
		c-7.833-6.102-21.796-1.936-21.796,10.258c0,6.104,4.988,12.821,12.82,12.821c9.397,0,13.462-10.259,13.462-10.259
		s1.194,11.692-5.769,17.951h15.386c-6.963-6.256-5.77-17.951-5.77-17.951s4.064,10.259,13.462,10.259
		c7.836,0,12.821-6.719,12.821-12.821C76.098,37.767,62.135,33.601,54.302,39.703z"/>
</g>
</svg>
