<?xml version="1.0" encoding="utf-8"?>
<!-- Generator: Adobe Illustrator 16.0.3, SVG Export Plug-In . SVG Version: 6.00 Build 0)  -->
<!DOCTYPE svg PUBLIC "-//W3C//DTD SVG 1.1//EN" "http://www.w3.org/Graphics/SVG/1.1/DTD/svg11.dtd">
<svg version="1.1"
	 id="svg2" xmlns:dc="http://purl.org/dc/elements/1.1/" xmlns:cc="http://creativecommons.org/ns#" xmlns:rdf="http://www.w3.org/1999/02/22-rdf-syntax-ns#" xmlns:svg="http://www.w3.org/2000/svg" xmlns:sodipodi="http://sodipodi.sourceforge.net/DTD/sodipodi-0.dtd" xmlns:inkscape="http://www.inkscape.org/namespaces/inkscape" inkscape:export-ydpi="215.44792" inkscape:export-xdpi="215.44792" inkscape:export-filename="/home/byron/art/cards/final/PNGs/2_of_diamonds.png" sodipodi:docname="2_of_diamonds.svg" inkscape:version="0.48.0 r9654"
	 xmlns="http://www.w3.org/2000/svg" xmlns:xlink="http://www.w3.org/1999/xlink" x="0px" y="0px" width="167.086px"
	 height="242.667px" viewBox="0 0 167.086 242.667" enable-background="new 0 0 167.086 242.667" xml:space="preserve">
<sodipodi:namedview  inkscape:cy="147.27218" inkscape:cx="72.124594" inkscape:zoom="1.7208768" showgrid="false" guidetolerance="10" gridtolerance="10" objecttolerance="10" borderopacity="1" bordercolor="#666666" pagecolor="#ffffff" id="namedview39" inkscape:window-x="0" inkscape:window-height="977" inkscape:window-width="1680" inkscape:pageshadow="2" inkscape:pageopacity="0" inkscape:current-layer="svg2" inkscape:window-maximized="1" inkscape:window-y="25">
	</sodipodi:namedview>
<g id="Layer_x0020_1">
	<path id="path5" fill="#FFFFFF" stroke="#000000" stroke-width="0.5" d="M166.836,235.548c0,3.777-3.086,6.869-6.871,6.869H7.111
		c-3.775,0-6.861-3.092-6.861-6.869V7.12c0-3.777,3.086-6.87,6.861-6.87h152.854c3.785,0,6.871,3.093,6.871,6.87V235.548z"/>
	<g id="g7">
		<g id="g9">
		</g>
	</g>
	<g id="g15">
	</g>
	<g id="g19">
	</g>
	<g id="g23">
		<g id="g25">
		</g>
	</g>
	<g id="g31">
		<g id="g33">
		</g>
	</g>
</g>
<g id="layer1-2-6-8-2" transform="matrix(2.5882908,0,0,2.5882908,82.928726,55.619539)">
	<path id="dl-6-8-6" sodipodi:nodetypes="ccccccccc" inkscape:connector-curvature="0" fill="#DF0000" d="M10.688,10.162
		C3.867,0.932,0.237-8.448,0.237-8.448s-3.629,9.38-10.451,18.61c-6.826,9.226-15.329,15.228-15.329,15.228
		s8.504,5.998,15.329,15.231c6.822,9.226,10.451,18.606,10.451,18.606s3.63-9.38,10.451-18.606
		c6.826-9.233,15.33-15.231,15.33-15.231S17.514,19.388,10.688,10.162z"/>
</g>
</svg>
